<mxfile host="app.diagrams.net" modified="2024-02-23T16:33:15.239Z" agent="Mozilla/5.0 (Windows NT 10.0; Win64; x64) AppleWebKit/537.36 (KHTML, like Gecko) Chrome/121.0.0.0 Safari/537.36 Edg/121.0.0.0" etag="wVY632QRZoNY7Zcmoq8_" version="23.1.6" type="device">
  <diagram id="R2lEEEUBdFMjLlhIrx00" name="Page-1">
    <mxGraphModel dx="746" dy="472" grid="1" gridSize="10" guides="1" tooltips="1" connect="1" arrows="1" fold="1" page="1" pageScale="1" pageWidth="850" pageHeight="1100" math="0" shadow="0" extFonts="Permanent Marker^https://fonts.googleapis.com/css?family=Permanent+Marker">
      <root>
        <mxCell id="0" />
        <mxCell id="1" parent="0" />
        <mxCell id="KH8Hwb0yLSuJyesm_K7H-6" style="edgeStyle=orthogonalEdgeStyle;rounded=0;orthogonalLoop=1;jettySize=auto;html=1;exitX=0.5;exitY=1;exitDx=0;exitDy=0;entryX=0.5;entryY=0;entryDx=0;entryDy=0;" edge="1" parent="1" source="KH8Hwb0yLSuJyesm_K7H-1" target="KH8Hwb0yLSuJyesm_K7H-2">
          <mxGeometry relative="1" as="geometry" />
        </mxCell>
        <mxCell id="KH8Hwb0yLSuJyesm_K7H-1" value="GUI INTERFACE&amp;nbsp;" style="rounded=1;whiteSpace=wrap;html=1;fillColor=#dae8fc;strokeColor=#6c8ebf;" vertex="1" parent="1">
          <mxGeometry x="260" y="120" width="120" height="60" as="geometry" />
        </mxCell>
        <mxCell id="KH8Hwb0yLSuJyesm_K7H-9" style="edgeStyle=orthogonalEdgeStyle;rounded=0;orthogonalLoop=1;jettySize=auto;html=1;exitX=1;exitY=0.5;exitDx=0;exitDy=0;entryX=0.25;entryY=0;entryDx=0;entryDy=0;" edge="1" parent="1" source="KH8Hwb0yLSuJyesm_K7H-2" target="KH8Hwb0yLSuJyesm_K7H-5">
          <mxGeometry relative="1" as="geometry" />
        </mxCell>
        <mxCell id="KH8Hwb0yLSuJyesm_K7H-11" value="" style="edgeStyle=orthogonalEdgeStyle;rounded=0;orthogonalLoop=1;jettySize=auto;html=1;" edge="1" parent="1" source="KH8Hwb0yLSuJyesm_K7H-2" target="KH8Hwb0yLSuJyesm_K7H-4">
          <mxGeometry relative="1" as="geometry" />
        </mxCell>
        <mxCell id="KH8Hwb0yLSuJyesm_K7H-2" value="Buttons" style="rounded=1;whiteSpace=wrap;html=1;fillColor=#dae8fc;strokeColor=#6c8ebf;" vertex="1" parent="1">
          <mxGeometry x="260" y="220" width="120" height="60" as="geometry" />
        </mxCell>
        <mxCell id="KH8Hwb0yLSuJyesm_K7H-3" value="Encoding&lt;br&gt;(writing hidden messages)" style="rounded=1;whiteSpace=wrap;html=1;fillColor=#e1d5e7;strokeColor=#9673a6;" vertex="1" parent="1">
          <mxGeometry x="70" y="360" width="120" height="60" as="geometry" />
        </mxCell>
        <mxCell id="KH8Hwb0yLSuJyesm_K7H-4" value="Decoding&lt;br&gt;(Fetching the hidden information)" style="rounded=1;whiteSpace=wrap;html=1;fillColor=#e1d5e7;strokeColor=#9673a6;" vertex="1" parent="1">
          <mxGeometry x="260" y="380" width="120" height="60" as="geometry" />
        </mxCell>
        <mxCell id="KH8Hwb0yLSuJyesm_K7H-5" value="Image Information&lt;br&gt;(size, bytes etc about the image)" style="rounded=1;whiteSpace=wrap;html=1;fillColor=#e1d5e7;strokeColor=#9673a6;" vertex="1" parent="1">
          <mxGeometry x="520" y="360" width="120" height="60" as="geometry" />
        </mxCell>
        <mxCell id="KH8Hwb0yLSuJyesm_K7H-12" style="edgeStyle=orthogonalEdgeStyle;rounded=0;orthogonalLoop=1;jettySize=auto;html=1;exitX=0;exitY=0.5;exitDx=0;exitDy=0;entryX=0.322;entryY=-0.039;entryDx=0;entryDy=0;entryPerimeter=0;" edge="1" parent="1" source="KH8Hwb0yLSuJyesm_K7H-2" target="KH8Hwb0yLSuJyesm_K7H-3">
          <mxGeometry relative="1" as="geometry" />
        </mxCell>
        <mxCell id="KH8Hwb0yLSuJyesm_K7H-14" value="" style="edgeStyle=orthogonalEdgeStyle;rounded=0;orthogonalLoop=1;jettySize=auto;html=1;" edge="1" parent="1" source="KH8Hwb0yLSuJyesm_K7H-13" target="KH8Hwb0yLSuJyesm_K7H-1">
          <mxGeometry relative="1" as="geometry" />
        </mxCell>
        <mxCell id="KH8Hwb0yLSuJyesm_K7H-13" value="user" style="rounded=1;whiteSpace=wrap;html=1;fillColor=#f8cecc;strokeColor=#b85450;" vertex="1" parent="1">
          <mxGeometry x="260" y="20" width="120" height="50" as="geometry" />
        </mxCell>
      </root>
    </mxGraphModel>
  </diagram>
</mxfile>
